{"title":"The.Human.Centipede.2009.BRRip.XviD.Feel-Free","uid":5852511,"size":1634279376,"categoryP":"video","categoryS":"movies","magnet":"?xt=urn:btih:e8686d71e3728e5a7731751bbcec7543bd7bd3cb&amp;dn=The.Human.Centipede.2009.BRRip.XviD.Feel-Free&amp;tr=udp%3A%2F%2Ftracker.openbittorrent.com%3A80&amp;tr=udp%3A%2F%2Fopen.demonii.com%3A1337&amp;tr=udp%3A%2F%2Ftracker.coppersurfer.tk%3A6969&amp;tr=udp%3A%2F%2Fexodus.desync.com%3A6969","seeders":16,"leechers":2,"uploader":".BONE.","files":8,"time":1285448344,"description":"Genre:Drama | Horror | Thriller\nLanguage:English\nIMDb:http://www.imdb.com/title/tt1467304/\nSource:BluRay.x264-DEPRAViTY\n\nGeneral\nComplete name :The.Human.Centipede.2009.BRRip.XviD.Feel-Free\nFormat : AVI\nFormat/Info : Audio Video Interleave\nFile size : 1.52 GiB\nDuration : 1h 31mn\nOverall bit rate : 2 369 Kbps\nVideo #0\nMuxing mode : Packed bitstream\nCodec ID : XVID\nCodec ID/Hint : XviD\nDuration : 1h 31mn\nBit rate : 1 911 Kbps\nWidth : 720 pixels\nHeight : 384 pixels\nDisplay aspect ratio : 1.875\nFrame rate : 23.976 fps\nResolution : 24 bits\nColorimetry : 4:2:0\nScan type : Progressive\nBits/(Pixel*Frame) : 0.288\nStream size : 1.23 GiB (81%)\nWriting library : XviD 1.2.1 (UTC 2008-12-04)\nAudio #1\nID : 1\nFormat : AC-3\nFormat/Info : Audio Coding 3\nCodec ID : 2000\nDuration : 1h 31mn\nBit rate mode : Constant\nBit rate : 448 Kbps\nChannel(s) : 6 channels\nChannel positions : Front: L C R, Surround: L R, LFE\nSampling rate : 48.0 KHz\nStream size : 295 MiB (19%)\nAlignment : Split accross interleaves\nInterleave, duration : 42 ms (1.00 video frame)\nInterleave, preload duration : 500 ms\n\nPlot\nTwo pretty but ditsy American girls are on a road trip through Europe. In Germany, they end up alone at night with a broken car in the woods\n","torrent":{"xt":"urn:btih:e8686d71e3728e5a7731751bbcec7543bd7bd3cb","amp;dn":"The.Human.Centipede.2009.BRRip.XviD.Feel-Free","amp;tr":["udp%3A%2F%2Ftracker.openbittorrent.com%3A80","udp%3A%2F%2Fopen.demonii.com%3A1337","udp%3A%2F%2Ftracker.coppersurfer.tk%3A6969","udp%3A%2F%2Fexodus.desync.com%3A6969"],"infoHash":"e8686d71e3728e5a7731751bbcec7543bd7bd3cb","infoHashBuffer":{"type":"Buffer","data":[232,104,109,113,227,114,142,90,119,49,117,27,188,236,117,67,189,123,211,203]},"announce":[],"urlList":[]}}